<svg height="564pt" viewBox="-65 -18 564 564.00077" width="564pt" xmlns="http://www.w3.org/2000/svg"><path d="m384.253906 182.597656c-3.328125 0-6.484375-1.953125-7.863281-5.207031-1.832031-4.339844.195313-9.34375 4.535156-11.175781 20.5625-8.703125 33.855469-28.753906 33.855469-51.082032 0-30.570312-24.867188-55.4375-55.429688-55.4375-6.984374 0-13.789062 1.285157-20.226562 3.808594-4.410156 1.722656-9.335938-.445312-11.058594-4.828125-1.71875-4.386719.445313-9.335937 4.828125-11.054687 8.429688-3.300782 17.332031-4.980469 26.457031-4.980469 39.972657 0 72.484376 32.519531 72.484376 72.492187 0 29.195313-17.371094 55.414063-44.269532 66.789063-1.082031.460937-2.210937.675781-3.3125.675781zm0 0"/><path d="m53.445312 185.621094c-.703124 0-1.414062-.085938-2.125-.273438-32.042968-8.222656-54.421874-37.097656-54.421874-70.214844 0-39.972656 32.519531-72.492187 72.492187-72.492187 11.535156 0 23.015625 2.777344 33.195313 8.03125 4.1875 2.164063 5.828124 7.304687 3.671874 11.492187-2.164062 4.183594-7.3125 5.828126-11.492187 3.664063-7.886719-4.066406-16.425781-6.132813-25.375-6.132813-30.566406 0-55.433594 24.867188-55.433594 55.4375 0 25.324219 17.109375 47.40625 41.601563 53.695313 4.566406 1.171875 7.316406 5.816406 6.144531 10.382813-.992187 3.847656-4.457031 6.410156-8.257813 6.410156zm0 0"/><path d="m380.671875 394.382812c-4.714844 0-8.53125-3.820312-8.53125-8.53125v-215.285156c0-84.644531-68.863281-153.511718-153.503906-153.511718-84.648438 0-153.511719 68.867187-153.511719 153.511718v213.886719c0 4.707031-3.816406 8.523437-8.527344 8.523437-4.707031 0-8.527344-3.816406-8.527344-8.523437v-213.886719c0-94.050781 76.515626-170.566406 170.566407-170.566406 94.042969 0 170.558593 76.515625 170.558593 170.566406v215.285156c0 4.710938-3.8125 8.53125-8.523437 8.53125zm0 0"/><path d="m364.246094 528.75h-291.226563c-13.757812 0-24.949219-11.195312-24.949219-24.949219v-14.816406c0-4.707031 3.820313-8.53125 8.527344-8.53125 4.710938 0 8.527344 3.824219 8.527344 8.53125v14.816406c0 4.351563 3.546875 7.894531 7.894531 7.894531h291.226563c4.351562 0 7.894531-3.542968 7.894531-7.894531v-15.527343c0-4.710938 3.816406-8.527344 8.53125-8.527344 4.710937 0 8.523437 3.816406 8.523437 8.527344v15.527343c0 13.753907-11.191406 24.949219-24.949218 24.949219zm0 0"/><path d="m158.933594 132.1875c0 7.066406-5.722656 12.792969-12.789063 12.792969-7.066406 0-12.796875-5.726563-12.796875-12.792969s5.730469-12.792969 12.796875-12.792969c7.066407 0 12.789063 5.726563 12.789063 12.792969zm0 0"/><path d="m252.746094 332.597656h-68.226563c-4.707031 0-8.523437-3.816406-8.523437-8.523437v-71.164063c0-4.710937 3.816406-8.53125 8.523437-8.53125 4.710938 0 8.53125 3.820313 8.53125 8.53125v62.632813h51.167969v-62.632813c0-4.710937 3.816406-8.53125 8.527344-8.53125 4.707031 0 8.53125 3.820313 8.53125 8.53125v71.164063c0 4.707031-3.824219 8.523437-8.53125 8.523437zm0 0"/><path d="m303.917969 132.1875c0 7.066406-5.730469 12.792969-12.792969 12.792969-7.066406 0-12.792969-5.726563-12.792969-12.792969s5.726563-12.792969 12.792969-12.792969c7.0625 0 12.792969 5.726563 12.792969 12.792969zm0 0"/><path d="m210.105469 230.261719h17.054687v68.226562h-17.054687zm0 0"/><path d="m167.464844 264.371094c-32.914063 0-59.695313-26.777344-59.695313-59.695313 0-4.707031 3.816407-8.527343 8.523438-8.527343 4.710937 0 8.53125 3.820312 8.53125 8.527343 0 23.511719 19.128906 42.640625 42.640625 42.640625 23.511718 0 42.640625-19.128906 42.640625-42.640625 0-4.707031 3.820312-8.527343 8.53125-8.527343 4.707031 0 8.523437 3.820312 8.523437 8.527343 0 32.917969-26.78125 59.695313-59.695312 59.695313zm0 0"/><path d="m269.800781 264.371094c-32.914062 0-59.695312-26.777344-59.695312-59.695313 0-4.707031 3.820312-8.527343 8.53125-8.527343 4.707031 0 8.523437 3.820312 8.523437 8.527343 0 23.511719 19.132813 42.640625 42.640625 42.640625 23.511719 0 42.644531-19.128906 42.644531-42.640625 0-4.707031 3.816407-8.527343 8.527344-8.527343 4.707032 0 8.527344 3.820312 8.527344 8.527343 0 32.917969-26.78125 59.695313-59.699219 59.695313zm0 0"/><path d="m218.636719 213.207031c-18.8125 0-34.117188-15.304687-34.117188-34.113281s15.304688-34.113281 34.117188-34.113281c18.804687 0 34.109375 15.304687 34.109375 34.113281s-15.304688 34.113281-34.109375 34.113281zm0-51.171875c-9.410157 0-17.0625 7.652344-17.0625 17.058594 0 9.402344 7.652343 17.054688 17.0625 17.054688 9.402343 0 17.054687-7.652344 17.054687-17.054688 0-9.40625-7.652344-17.058594-17.054687-17.058594zm0 0"/><path d="m141.878906 443.46875h-102.335937c-4.714844 0-8.53125-3.820312-8.53125-8.527344v-8.53125c0-32.914062 26.78125-59.695312 59.695312-59.695312 32.921875 0 59.703125 26.78125 59.703125 59.695312v8.53125c0 4.707032-3.820312 8.527344-8.53125 8.527344zm-93.808594-17.058594h85.277344c0-23.511718-19.128906-42.640625-42.640625-42.640625-23.503906 0-42.636719 19.128907-42.636719 42.640625zm0 0"/><path d="m56.597656 494.636719c-14.105468 0-25.585937-11.480469-25.585937-25.585938v-34.109375c0-4.710937 3.816406-8.53125 8.53125-8.53125h34.109375c4.710937 0 8.53125 3.820313 8.53125 8.53125v34.109375c0 14.105469-11.476563 25.585938-25.585938 25.585938zm-8.527344-51.167969v25.582031c0 4.703125 3.824219 8.53125 8.527344 8.53125 4.699219 0 8.527344-3.828125 8.527344-8.53125v-25.582031zm0 0"/><path d="m90.707031 494.636719c-14.105469 0-25.582031-11.480469-25.582031-25.585938v-34.109375c0-4.710937 3.820312-8.53125 8.527344-8.53125h34.117187c4.707031 0 8.523438 3.820313 8.523438 8.53125v34.109375c0 14.105469-11.476563 25.585938-25.585938 25.585938zm-8.523437-51.167969v25.582031c0 4.703125 3.824218 8.53125 8.523437 8.53125 4.707031 0 8.53125-3.828125 8.53125-8.53125v-25.582031zm0 0"/><path d="m124.824219 494.636719c-14.109375 0-25.585938-11.480469-25.585938-25.585938v-34.109375c0-4.710937 3.816407-8.53125 8.53125-8.53125h34.109375c4.710938 0 8.53125 3.820313 8.53125 8.53125v34.109375c0 14.105469-11.476562 25.585938-25.585937 25.585938zm-8.53125-51.167969v25.582031c0 4.703125 3.828125 8.53125 8.53125 8.53125 4.699219 0 8.523437-3.828125 8.523437-8.53125v-25.582031zm0 0"/><path d="m397.726562 443.46875h-102.339843c-4.710938 0-8.527344-3.820312-8.527344-8.527344v-8.53125c0-32.914062 26.78125-59.695312 59.699219-59.695312 32.917968 0 59.699218 26.78125 59.699218 59.695312v8.53125c0 4.707032-3.820312 8.527344-8.53125 8.527344zm-93.808593-17.058594h85.277343c0-23.511718-19.128906-42.640625-42.636718-42.640625-23.511719 0-42.640625 19.128907-42.640625 42.640625zm0 0"/><path d="m312.445312 494.636719c-14.105468 0-25.585937-11.480469-25.585937-25.585938v-34.109375c0-4.710937 3.816406-8.53125 8.527344-8.53125h34.113281c4.710938 0 8.527344 3.820313 8.527344 8.53125v34.109375c0 14.105469-11.472656 25.585938-25.582032 25.585938zm-8.527343-51.167969v25.582031c0 4.703125 3.824219 8.53125 8.527343 8.53125 4.699219 0 8.527344-3.828125 8.527344-8.53125v-25.582031zm0 0"/><path d="m346.558594 494.636719c-14.109375 0-25.585938-11.480469-25.585938-25.585938v-34.109375c0-4.710937 3.820313-8.53125 8.527344-8.53125h34.113281c4.707031 0 8.527344 3.820313 8.527344 8.53125v34.109375c0 14.105469-11.476563 25.585938-25.582031 25.585938zm-8.53125-51.167969v25.582031c0 4.703125 3.828125 8.53125 8.53125 8.53125 4.699218 0 8.527344-3.828125 8.527344-8.53125v-25.582031zm0 0"/><path d="m380.671875 494.636719c-14.109375 0-25.585937-11.480469-25.585937-25.585938v-34.109375c0-4.710937 3.816406-8.53125 8.527343-8.53125h34.113281c4.710938 0 8.53125 3.820313 8.53125 8.53125v34.109375c0 14.105469-11.476562 25.585938-25.585937 25.585938zm-8.53125-51.167969v25.582031c0 4.703125 3.828125 8.53125 8.53125 8.53125 4.699219 0 8.523437-3.828125 8.523437-8.53125v-25.582031zm0 0"/></svg>